<?xml version="1.0" standalone="no"?>
<!DOCTYPE svg PUBLIC "-//W3C//DTD SVG 20010904//EN"
 "http://www.w3.org/TR/2001/REC-SVG-20010904/DTD/svg10.dtd">
<svg version="1.0" xmlns="http://www.w3.org/2000/svg"
 width="1136.000000pt" height="1136.000000pt" viewBox="0 0 1136.000000 1136.000000"
 preserveAspectRatio="xMidYMid meet">
<metadata>
Created by potrace 1.14, written by Peter Selinger 2001-2017
</metadata>
<g transform="translate(0.000000,1136.000000) scale(0.100000,-0.100000)"
fill="#000000" stroke="none">
<path d="M9269 9757 c-1 -1 -3 -27 -5 -57 -2 -30 -6 -65 -9 -77 -3 -13 -6 -25
-6 -28 0 -2 -5 -19 -10 -37 -6 -18 -12 -40 -14 -48 -7 -31 -49 -117 -83 -170
-59 -93 -233 -249 -292 -262 -8 -2 -23 -11 -34 -20 -11 -10 -25 -18 -31 -18
-6 0 -31 -10 -56 -22 -24 -11 -50 -21 -56 -21 -7 0 -13 -5 -13 -10 0 -6 -3 -8
-6 -4 -4 3 -19 0 -35 -9 -16 -8 -29 -12 -29 -9 0 3 -8 2 -17 -4 -53 -28 -234
-54 -393 -57 -184 -3 -192 -4 -246 -32 -56 -28 -93 -69 -122 -131 -26 -56 -27
-75 -32 -381 -1 -112 0 -122 34 -188 53 -104 135 -143 306 -145 108 -1 286 9
300 18 4 2 29 7 56 11 27 3 60 11 74 16 14 5 26 9 28 9 1 -1 3 -1 5 0 1 0 11
3 22 5 34 8 50 12 50 14 0 1 7 3 15 5 57 12 292 117 350 155 14 9 45 30 70 46
25 16 72 49 105 74 86 64 290 274 304 314 2 6 7 13 11 16 36 27 171 277 220
409 29 79 74 251 84 321 14 98 17 132 20 218 l3 92 -91 1 c-50 0 -178 2 -283
5 -106 2 -193 3 -194 1z"/>
<path d="M4 9651 c-2 -2 -4 -1795 -4 -3983 0 -3782 1 -3978 18 -3979 94 -4
1474 -1 1478 4 5 5 8 258 4 282 -1 6 -2 13 -1 18 1 4 2 41 2 82 0 41 -1 78 -2
83 -1 4 0 12 1 17 2 12 2 286 -1 300 -1 6 0 15 1 20 3 14 3 268 0 280 -1 6 -2
13 -1 18 3 9 3 145 0 155 -1 4 0 12 1 17 2 13 2 277 0 290 -1 6 -2 13 -1 18 3
9 3 155 0 165 -1 4 0 12 1 17 2 12 2 276 -1 290 -1 6 0 15 1 20 1 6 2 69 1
142 -1 143 -3 137 74 218 21 22 119 132 176 200 19 21 41 46 49 55 8 9 42 47
75 84 33 38 74 84 90 102 17 18 43 47 59 66 189 219 202 232 215 224 6 -4 11
-14 11 -22 0 -8 5 -14 10 -14 6 0 10 -7 10 -15 0 -8 3 -15 8 -15 4 0 20 -21
37 -48 16 -26 32 -49 35 -52 3 -3 16 -22 29 -43 13 -21 28 -43 35 -50 6 -6 23
-30 36 -52 13 -22 27 -42 31 -45 4 -3 18 -21 31 -40 158 -233 223 -326 230
-328 4 -2 8 -8 8 -13 0 -9 108 -165 144 -209 7 -9 15 -22 19 -30 4 -8 34 -53
68 -100 34 -47 70 -100 81 -117 11 -18 24 -33 29 -33 5 0 9 -5 9 -10 0 -6 51
-80 113 -166 61 -85 119 -165 127 -177 8 -12 32 -44 52 -72 21 -27 44 -59 52
-70 75 -101 90 -120 98 -123 4 -2 8 -9 8 -15 0 -7 14 -27 31 -44 16 -18 28
-33 25 -33 -4 0 2 -8 12 -18 9 -10 31 -36 47 -57 17 -21 40 -50 52 -64 12 -14
30 -35 40 -47 30 -35 126 -144 153 -174 14 -15 54 -60 90 -101 70 -81 247
-259 295 -299 75 -61 115 -90 124 -90 5 0 11 -4 13 -8 2 -5 59 -45 128 -90 69
-45 130 -85 135 -89 36 -27 205 -116 205 -108 0 3 10 -1 23 -9 24 -15 204 -70
267 -82 8 -1 33 -7 55 -13 22 -5 56 -12 75 -16 19 -3 58 -10 85 -15 151 -28
218 -33 435 -34 151 -1 315 7 315 14 0 1 11 3 25 5 50 6 195 32 195 35 0 1 9
3 20 4 69 10 443 122 520 156 11 5 100 39 199 76 l179 67 72 -36 c121 -61 219
-105 248 -112 15 -4 30 -11 33 -16 3 -5 15 -9 28 -9 12 0 26 -4 32 -8 9 -9 75
-31 109 -37 11 -2 20 -4 20 -5 0 -1 7 -3 15 -5 8 -2 72 -17 142 -34 70 -17
142 -33 160 -35 18 -3 33 -5 33 -6 0 -1 24 -5 85 -13 19 -3 51 -8 70 -11 36
-6 88 -11 225 -23 44 -3 175 -6 290 -6 273 -1 490 12 660 38 11 1 47 6 79 10
62 8 91 12 91 15 0 1 14 4 30 6 30 5 161 32 180 38 8 2 76 17 95 21 9 2 125
36 195 58 39 11 72 22 75 22 3 1 19 7 35 14 17 6 44 16 60 22 35 13 43 16 150
62 131 57 234 107 240 117 4 6 15 10 26 10 10 0 19 4 19 9 0 5 8 11 18 14 9 3
38 19 64 34 127 76 143 87 148 92 3 3 37 27 75 52 39 26 80 55 93 65 129 103
158 127 165 133 4 5 -8 41 -27 82 -93 201 -116 250 -116 254 0 2 -22 52 -50
110 -27 58 -50 108 -50 110 0 1 -18 42 -40 89 -22 47 -40 88 -40 91 0 3 -11
26 -24 53 -13 26 -32 65 -42 87 -44 102 -94 205 -99 205 -4 0 -42 -27 -85 -60
-43 -33 -82 -60 -85 -60 -3 0 -15 -8 -26 -18 -10 -11 -32 -25 -47 -33 -15 -8
-36 -22 -46 -31 -11 -10 -23 -18 -27 -18 -4 0 -40 -19 -81 -43 -40 -24 -88
-49 -105 -56 -18 -7 -33 -17 -33 -22 0 -5 -8 -9 -18 -9 -10 0 -26 -6 -37 -13
-17 -12 -171 -80 -185 -83 -5 -1 -33 -12 -90 -37 -14 -6 -27 -11 -30 -12 -3
-1 -52 -16 -109 -34 -58 -18 -116 -35 -130 -37 -14 -3 -42 -9 -61 -14 -19 -5
-51 -11 -70 -14 -19 -3 -44 -7 -55 -10 -11 -2 -51 -7 -90 -11 -38 -4 -81 -9
-95 -11 -35 -6 -322 -5 -395 1 -33 3 -82 7 -110 10 -27 2 -72 7 -100 10 -77 9
-295 54 -317 66 -11 6 -22 8 -25 6 -3 -3 -25 3 -49 13 -24 11 -46 20 -49 20
-51 8 -238 104 -320 164 -82 60 -169 142 -158 149 7 5 23 8 98 22 11 2 20 4
20 5 0 2 7 3 55 13 14 3 58 14 97 25 40 11 73 17 73 15 0 -3 6 -1 13 4 6 6 20
9 30 8 9 -2 17 2 17 8 0 5 3 8 6 5 3 -4 45 5 92 18 48 14 94 26 102 28 47 11
139 38 245 71 174 54 175 54 175 47 0 -4 4 -2 8 3 4 6 48 23 97 40 50 16 106
36 125 44 19 8 38 15 42 15 3 1 10 4 14 9 4 4 16 7 26 7 10 0 26 4 36 10 9 5
58 26 107 46 50 20 122 51 160 69 39 18 80 36 92 40 13 3 23 11 23 16 0 5 5 9
10 9 19 0 196 93 252 132 14 10 31 18 36 18 6 0 12 3 14 8 2 4 30 25 63 46
149 97 364 288 430 381 11 16 32 42 47 59 15 16 25 33 22 38 -3 4 -1 8 4 8 4
0 19 19 32 43 13 23 26 44 29 47 12 10 74 137 107 217 30 77 67 193 78 253 3
14 9 49 15 78 34 169 31 542 -5 705 -2 9 -6 27 -9 40 -21 101 -55 225 -75 272
-4 11 -18 45 -30 75 -63 157 -180 352 -290 485 -32 38 -197 203 -232 232 -50
40 -173 120 -238 154 -36 19 -67 37 -70 40 -3 3 -14 8 -25 12 -26 7 -145 55
-165 66 -9 5 -31 12 -50 17 -45 10 -36 8 -100 26 -99 29 -284 64 -385 73 -258
24 -677 23 -716 -1 -5 -3 -9 0 -9 7 0 8 -4 8 -12 1 -7 -5 -36 -12 -65 -16 -29
-3 -75 -11 -103 -17 -29 -6 -59 -12 -68 -14 -9 -2 -17 -4 -17 -5 0 -1 -11 -4
-25 -6 -14 -3 -43 -10 -65 -16 -22 -6 -43 -12 -47 -14 -5 -1 -10 -3 -13 -4 -3
-1 -8 -3 -12 -4 -62 -14 -299 -107 -338 -133 -11 -7 -27 -13 -36 -13 -10 0
-19 -4 -21 -8 -1 -4 -38 -27 -80 -49 -79 -43 -237 -144 -260 -167 -7 -7 -20
-17 -29 -22 -22 -12 -96 -72 -131 -106 -16 -16 -31 -28 -33 -28 -9 0 -250
-253 -275 -290 -18 -26 -117 -161 -129 -175 -37 -48 -232 -415 -236 -445 0 -3
-4 -11 -8 -17 -5 -7 -6 -13 -2 -13 3 0 -2 -14 -10 -30 -23 -44 -86 -239 -110
-340 -12 -51 -27 -118 -31 -135 -2 -11 -6 -31 -9 -45 -11 -49 -24 -120 -30
-175 -2 -16 -7 -46 -10 -65 -4 -32 -7 -57 -21 -195 -21 -220 -20 -653 2 -860
4 -33 8 -71 9 -85 3 -25 14 -107 21 -145 1 -11 5 -36 8 -55 3 -19 8 -46 12
-60 3 -14 8 -41 10 -60 3 -19 9 -48 14 -65 5 -16 11 -41 14 -55 8 -40 34 -138
63 -230 15 -47 28 -92 29 -100 2 -8 8 -24 15 -36 16 -32 6 -50 -33 -59 -18 -4
-35 -8 -38 -9 -3 -1 -9 -4 -15 -7 -5 -3 -44 -6 -85 -7 -42 0 -80 -1 -85 -2 -6
-1 -12 -1 -15 0 -3 1 -30 3 -60 6 -70 4 -118 10 -150 18 -14 3 -37 8 -52 11
-69 13 -86 17 -129 31 -25 8 -54 16 -65 18 -91 19 -243 108 -344 203 -19 18
-60 56 -90 84 -115 107 -177 168 -235 235 -33 38 -64 74 -70 80 -31 35 -152
195 -294 389 -89 121 -167 227 -174 235 -7 8 -41 56 -77 105 -35 50 -68 92
-72 93 -4 2 -8 8 -8 12 0 8 -99 146 -145 202 -8 10 -27 36 -42 59 -61 91 -114
162 -125 167 -5 2 -8 10 -8 18 0 8 -4 14 -10 14 -5 0 -10 7 -10 15 0 8 -4 15
-8 15 -4 0 -19 18 -32 40 -14 22 -28 40 -32 40 -5 0 -8 7 -8 15 0 8 -3 15 -7
15 -5 0 -19 17 -33 37 -43 65 -291 407 -482 665 -76 103 -76 84 -1 168 17 19
41 46 53 60 52 61 127 147 155 177 17 18 35 39 40 46 22 27 130 152 136 157 3
3 39 43 78 89 40 46 77 89 84 96 7 6 35 38 62 71 28 32 57 65 65 74 8 9 42 47
75 85 33 39 62 72 65 75 5 4 162 185 230 264 14 16 30 34 35 40 6 6 44 49 85
96 40 47 77 87 82 88 4 2 8 7 8 12 0 5 12 21 28 37 15 16 41 44 57 63 68 78
261 299 315 360 31 36 70 81 86 100 16 19 36 41 44 50 8 9 40 44 70 79 30 35
60 69 65 75 6 6 39 45 75 86 86 99 120 138 148 168 12 14 40 46 62 72 22 26
50 58 62 72 13 13 41 46 63 73 22 26 45 53 51 59 5 6 34 38 63 71 29 33 70 78
90 101 20 22 59 67 86 99 28 33 59 69 70 80 11 12 47 53 80 91 33 38 64 74 70
80 5 6 33 38 60 70 28 32 61 70 75 85 14 15 43 49 65 75 22 26 55 63 73 82 17
19 32 38 32 41 0 11 -1894 6 -1910 -4 -8 -6 -31 -30 -51 -55 -20 -25 -45 -55
-55 -67 -11 -12 -28 -32 -38 -45 -28 -33 -120 -142 -126 -148 -3 -3 -39 -45
-80 -95 -41 -49 -79 -95 -85 -101 -5 -6 -23 -28 -40 -48 -16 -21 -39 -47 -50
-60 -11 -12 -38 -44 -60 -71 -22 -26 -55 -64 -72 -83 -18 -19 -33 -38 -33 -41
0 -3 -23 -31 -50 -61 -27 -30 -53 -60 -57 -65 -13 -17 -107 -129 -118 -141 -5
-6 -28 -33 -50 -59 -22 -27 -44 -53 -50 -59 -5 -6 -44 -51 -85 -101 -41 -49
-77 -92 -80 -95 -3 -3 -26 -30 -51 -60 -45 -54 -262 -312 -303 -360 -11 -14
-43 -52 -71 -85 -27 -33 -55 -65 -61 -71 -5 -6 -26 -31 -45 -54 -18 -24 -44
-54 -56 -67 -11 -13 -36 -42 -55 -65 -18 -23 -38 -46 -43 -52 -6 -6 -35 -40
-64 -75 -29 -35 -58 -70 -64 -76 -19 -19 -91 -106 -107 -129 -8 -12 -22 -28
-31 -36 -9 -8 -52 -58 -95 -110 -43 -52 -89 -106 -100 -120 -12 -14 -52 -61
-89 -105 -37 -44 -76 -91 -88 -105 -12 -14 -55 -65 -97 -115 -41 -49 -77 -92
-80 -95 -3 -3 -25 -30 -50 -60 -25 -30 -56 -67 -70 -82 -14 -14 -32 -35 -40
-46 -63 -83 -163 -192 -157 -172 2 8 0 23 -5 33 -5 9 -5 17 -1 17 8 0 8 273
-1 295 -2 7 -2 15 1 18 4 5 7 145 2 165 -1 4 0 12 1 17 3 14 3 268 0 280 -1 6
-2 13 -1 18 1 4 2 39 2 77 0 39 -1 73 -2 78 -1 4 0 12 1 17 2 13 2 277 0 290
-1 6 -2 13 -1 18 1 4 2 39 2 77 0 39 -1 73 -2 78 -1 4 0 11 1 17 2 11 2 286
-1 300 -1 6 0 14 1 20 2 11 2 286 -1 300 -1 6 0 14 1 20 2 11 2 286 -1 300 -1
6 0 14 1 20 2 11 2 296 -1 310 -1 6 0 15 1 20 3 14 3 268 0 280 -1 6 -2 13 -1
18 1 4 2 39 2 77 0 39 -1 73 -2 78 -1 4 0 11 1 17 5 27 1 277 -5 283 -7 7
-1484 10 -1491 3z m8701 -3575 c178 -28 361 -136 467 -273 44 -57 92 -166 105
-238 11 -59 5 -277 -8 -292 -1 -2 -2 -6 -4 -10 -28 -104 -122 -239 -223 -324
-29 -24 -62 -52 -72 -61 -11 -10 -21 -18 -24 -18 -3 0 -20 -10 -39 -23 -59
-40 -265 -137 -291 -137 -9 0 -16 -4 -16 -10 0 -5 -3 -9 -7 -8 -5 1 -39 -9
-78 -22 -38 -13 -74 -25 -80 -26 -5 -2 -35 -10 -65 -19 -54 -16 -306 -82 -345
-90 -11 -2 -31 -6 -45 -10 -24 -5 -49 -10 -100 -20 -14 -3 -36 -7 -50 -10 -14
-3 -36 -8 -50 -11 -14 -3 -32 -7 -40 -9 -14 -4 -36 -8 -115 -20 -16 -2 -46 -8
-65 -13 -19 -4 -46 -8 -59 -8 -24 1 -25 2 -24 91 1 50 2 90 2 90 1 0 3 52 5
115 5 118 8 157 31 326 2 11 9 47 16 80 7 32 12 62 11 67 -1 4 3 7 10 7 6 0 9
3 5 6 -5 6 15 89 32 129 5 11 14 36 21 55 40 117 142 306 172 318 4 2 8 9 8
15 0 29 207 217 239 217 5 0 11 3 13 8 5 11 81 46 193 88 51 19 185 45 196 39
5 -4 9 -3 9 2 0 10 199 9 265 -1z"/>
</g>
</svg>
